<?xml version="1.0" ?><!DOCTYPE svg  PUBLIC '-//W3C//DTD SVG 1.0//EN'  'http://www.w3.org/TR/2001/REC-SVG-20010904/DTD/svg10.dtd'><svg enable-background="new 0 0 16 16" height="100px" id="Layer_1" version="1.0" viewBox="0 0 16 16" width="100px" xml:space="preserve" xmlns="http://www.w3.org/2000/svg" xmlns:xlink="http://www.w3.org/1999/xlink"><g><defs><rect height="16" id="SVGID_1_" width="16"/></defs><path d="M8.881,1.916c-3.101,0-5.7,2.172-6.369,5.072L0.001,6.959l3.4,5.49l3.527-5.408   L4.597,7.014c0.607-1.795,2.287-3.098,4.284-3.098c2.504,0,4.542,2.037,4.542,4.542S11.385,13,8.881,13   c-0.926,0-1.786-0.281-2.505-0.759l-1.093,1.675C6.317,14.6,7.552,15,8.881,15c3.607,0,6.542-2.935,6.542-6.542   C15.423,4.851,12.488,1.916,8.881,1.916" fill="#1D1D1B"/></g></svg>