<svg xmlns="http://www.w3.org/2000/svg" xmlns:xlink="http://www.w3.org/1999/xlink" width="500" zoomAndPan="magnify" viewBox="0 0 375 374.999991" height="500" preserveAspectRatio="xMidYMid meet" version="1.0"><defs><g/><clipPath id="a3e5ca63d9"><path d="M 246 167 L 312.984375 167 L 312.984375 175 L 246 175 Z M 246 167 " clip-rule="nonzero"/></clipPath><clipPath id="51b677bb6a"><path d="M 62.003906 73 L 235 73 L 235 240.789062 L 62.003906 240.789062 Z M 62.003906 73 " clip-rule="nonzero"/></clipPath></defs><rect x="-37.5" width="450" fill="#ffffff" y="-37.499999" height="449.999989" fill-opacity="1"/><rect x="-37.5" width="450" fill="#ffffff" y="-37.499999" height="449.999989" fill-opacity="1"/><rect x="-37.5" width="450" fill="#ffffff" y="-37.499999" height="449.999989" fill-opacity="1"/><path fill="#1a1a1a" d="M 270.835938 223.195312 L 196.710938 223.195312 L 196.710938 230.765625 L 270.835938 230.765625 Z M 270.835938 223.195312 " fill-opacity="1" fill-rule="nonzero"/><path fill="#1a1a1a" d="M 262.875 199.261719 L 246.503906 199.261719 L 246.503906 206.832031 L 262.875 206.832031 Z M 262.875 199.261719 " fill-opacity="1" fill-rule="nonzero"/><path fill="#1a1a1a" d="M 309.109375 190.175781 L 283.648438 190.175781 L 283.648438 197.746094 L 309.109375 197.746094 Z M 309.109375 190.175781 " fill-opacity="1" fill-rule="nonzero"/><g clip-path="url(#a3e5ca63d9)"><path fill="#1a1a1a" d="M 312.914062 167.273438 L 246.503906 167.273438 L 246.503906 174.84375 L 312.914062 174.84375 Z M 312.914062 167.273438 " fill-opacity="1" fill-rule="nonzero"/></g><path fill="#1a1a1a" d="M 242.488281 119.367188 L 221.265625 119.367188 L 221.265625 126.9375 L 242.488281 126.9375 Z M 242.488281 119.367188 " fill-opacity="1" fill-rule="nonzero"/><path fill="#1a1a1a" d="M 217.933594 75.695312 L 196.710938 75.695312 L 196.710938 83.265625 L 217.933594 83.265625 Z M 217.933594 75.695312 " fill-opacity="1" fill-rule="nonzero"/><path fill="#1a1a1a" d="M 262.875 95.882812 L 221.265625 95.882812 L 221.265625 103.449219 L 262.875 103.449219 Z M 262.875 95.882812 " fill-opacity="1" fill-rule="nonzero"/><path fill="#1a1a1a" d="M 262.875 143.015625 L 238.242188 143.015625 L 238.242188 150.585938 L 262.875 150.585938 Z M 262.875 143.015625 " fill-opacity="1" fill-rule="nonzero"/><path fill="#1a1a1a" d="M 106.765625 86.667969 C 103.5625 87.816406 100.285156 88.363281 97.058594 88.363281 C 85.238281 88.363281 74.125 81.027344 69.90625 69.273438 C 64.539062 54.316406 72.339844 37.777344 87.296875 32.410156 C 102.253906 27.039062 118.789062 34.84375 124.15625 49.800781 C 129.523438 64.761719 121.722656 81.300781 106.765625 86.667969 Z M 117.035156 52.359375 C 113.078125 41.328125 100.882812 35.574219 89.855469 39.535156 C 78.824219 43.492188 73.074219 55.6875 77.03125 66.71875 C 80.988281 77.746094 93.179688 83.5 104.210938 79.542969 C 115.238281 75.582031 120.992188 63.390625 117.035156 52.359375 Z M 117.035156 52.359375 " fill-opacity="1" fill-rule="nonzero"/><g clip-path="url(#51b677bb6a)"><path fill="#1a1a1a" d="M 63.8125 115.902344 C 67.363281 108.886719 75.960938 106.070312 82.972656 109.621094 L 97.746094 117.101562 C 98.066406 117.265625 98.359375 117.21875 98.546875 117.148438 C 98.734375 117.082031 98.984375 116.929688 99.125 116.59375 L 105.050781 102.449219 C 105.308594 101.832031 105.617188 101.226562 105.96875 100.640625 C 107.886719 95.09375 111.6875 90.378906 116.710938 87.332031 C 117.941406 86.585938 119.253906 85.941406 120.617188 85.410156 C 121.792969 84.703125 123.066406 84.175781 124.398438 83.835938 L 163.25 73.921875 C 163.492188 73.859375 163.734375 73.804688 163.988281 73.753906 L 164.242188 73.707031 C 164.628906 73.636719 165.019531 73.582031 165.425781 73.539062 L 165.550781 73.53125 C 167.769531 73.335938 170.035156 73.675781 172.074219 74.5 L 172.179688 74.539062 C 172.546875 74.691406 172.925781 74.863281 173.269531 75.042969 L 173.449219 75.132812 C 173.796875 75.316406 174.132812 75.519531 174.488281 75.746094 L 174.671875 75.863281 C 174.996094 76.078125 175.316406 76.3125 175.648438 76.574219 L 175.789062 76.6875 C 176.132812 76.964844 176.460938 77.257812 176.792969 77.585938 L 176.835938 77.628906 C 177.511719 78.300781 178.125 79.046875 178.648438 79.835938 L 193.523438 102.015625 C 195.644531 105.179688 196.410156 108.980469 195.671875 112.71875 C 194.9375 116.453125 192.789062 119.679688 189.625 121.800781 C 187.230469 123.410156 184.429688 124.242188 181.574219 124.222656 C 176.855469 124.179688 172.46875 121.820312 169.84375 117.902344 L 161.273438 105.125 C 160.839844 104.480469 160.039062 104.175781 159.285156 104.367188 C 158.5 104.566406 158.164062 105.136719 158.03125 105.457031 C 157.902344 105.777344 157.746094 106.417969 158.164062 107.109375 L 176.253906 136.957031 C 176.808594 137.875 177.316406 138.851562 177.765625 139.867188 C 177.84375 140.003906 177.921875 140.144531 177.996094 140.285156 L 194.421875 170.804688 C 194.589844 171.113281 194.972656 171.242188 195.292969 171.09375 L 212.222656 163.347656 C 215.964844 161.636719 220.15625 161.484375 224.015625 162.917969 C 227.878906 164.355469 230.945312 167.210938 232.660156 170.957031 C 236.199219 178.691406 232.785156 187.859375 225.054688 191.398438 L 194.445312 205.40625 C 194.367188 205.441406 194.289062 205.476562 194.242188 205.496094 C 194.019531 205.59375 193.792969 205.691406 193.578125 205.773438 C 193.460938 205.820312 193.34375 205.859375 193.226562 205.902344 L 193.121094 205.941406 C 192.984375 205.988281 192.84375 206.039062 192.710938 206.082031 C 192.585938 206.121094 192.457031 206.160156 192.277344 206.210938 C 192.125 206.253906 191.976562 206.296875 191.828125 206.335938 C 191.691406 206.371094 191.550781 206.402344 191.398438 206.4375 C 191.242188 206.472656 191.085938 206.507812 190.929688 206.539062 C 190.796875 206.5625 190.667969 206.589844 190.527344 206.609375 C 190.355469 206.640625 190.183594 206.664062 189.953125 206.695312 L 189.648438 206.734375 C 189.449219 206.753906 189.246094 206.769531 188.992188 206.789062 L 188.765625 206.804688 C 188.464844 206.820312 188.171875 206.824219 187.867188 206.824219 C 187.761719 206.824219 187.652344 206.816406 187.511719 206.808594 C 187.285156 206.804688 187.058594 206.796875 186.828125 206.777344 C 186.695312 206.769531 186.566406 206.753906 186.433594 206.738281 L 186.257812 206.71875 C 186.101562 206.703125 185.941406 206.683594 185.785156 206.664062 C 185.648438 206.640625 185.511719 206.617188 185.375 206.59375 L 185.253906 206.570312 C 185.089844 206.542969 184.921875 206.511719 184.75 206.476562 C 184.625 206.449219 184.5 206.417969 184.375 206.386719 L 184.253906 206.355469 C 184.082031 206.3125 183.90625 206.269531 183.738281 206.21875 C 183.605469 206.183594 183.480469 206.140625 183.300781 206.085938 C 183.109375 206.023438 182.921875 205.960938 182.742188 205.898438 C 182.617188 205.851562 182.492188 205.804688 182.324219 205.738281 C 182.136719 205.660156 181.949219 205.585938 181.761719 205.503906 C 181.632812 205.445312 181.507812 205.386719 181.371094 205.320312 C 181.183594 205.234375 180.996094 205.140625 180.8125 205.042969 C 180.683594 204.976562 180.5625 204.910156 180.433594 204.835938 C 180.253906 204.734375 180.074219 204.632812 179.886719 204.515625 C 179.769531 204.441406 179.652344 204.367188 179.535156 204.289062 C 179.359375 204.175781 179.191406 204.0625 179.011719 203.933594 C 178.894531 203.847656 178.777344 203.765625 178.667969 203.679688 C 178.503906 203.554688 178.34375 203.425781 178.1875 203.300781 C 178.066406 203.203125 177.949219 203.101562 177.828125 202.996094 C 177.683594 202.867188 177.539062 202.734375 177.378906 202.585938 C 177.265625 202.480469 177.15625 202.371094 177.046875 202.261719 C 176.914062 202.128906 176.785156 201.992188 176.613281 201.804688 C 176.507812 201.691406 176.40625 201.578125 176.3125 201.46875 C 176.199219 201.339844 176.089844 201.203125 175.984375 201.070312 L 178.941406 198.707031 L 175.925781 200.996094 C 175.824219 200.871094 175.726562 200.746094 175.625 200.613281 C 175.539062 200.496094 175.453125 200.375 175.371094 200.253906 L 175.28125 200.125 C 175.1875 199.988281 175.09375 199.851562 175.007812 199.714844 C 174.921875 199.582031 174.839844 199.445312 174.761719 199.308594 L 174.679688 199.171875 C 174.617188 199.070312 174.558594 198.964844 174.492188 198.847656 L 162.066406 175.769531 L 149.53125 187.140625 L 161.457031 220.117188 C 164.347656 228.113281 160.195312 236.972656 152.199219 239.867188 C 150.507812 240.480469 148.742188 240.789062 146.957031 240.789062 C 146.914062 240.789062 146.871094 240.789062 146.828125 240.789062 C 140.410156 240.734375 134.636719 236.644531 132.453125 230.609375 L 117.046875 188.007812 C 114.683594 181.476562 116.960938 174.21875 122.585938 170.207031 L 131.945312 161.082031 L 119.796875 141.042969 L 119.519531 141.710938 L 119.226562 142.308594 C 116.496094 147.671875 111.050781 150.96875 105.019531 150.921875 C 102.582031 150.902344 100.234375 150.332031 98.054688 149.226562 L 70.09375 135.066406 C 66.695312 133.34375 64.167969 130.402344 62.984375 126.785156 C 61.796875 123.164062 62.09375 119.300781 63.8125 115.902344 Z M 70.175781 124.425781 C 70.734375 126.125 71.917969 127.503906 73.511719 128.3125 L 101.472656 142.472656 C 102.605469 143.046875 103.820312 143.34375 105.082031 143.351562 C 108.191406 143.390625 111.0625 141.664062 112.480469 138.871094 L 113.652344 136.121094 C 114.601562 133.863281 116.703125 132.351562 119.140625 132.171875 C 121.582031 131.988281 123.882812 133.175781 125.148438 135.269531 L 139.632812 159.160156 C 140.753906 161.011719 140.457031 163.359375 138.90625 164.867188 L 127.804688 175.691406 L 127.453125 176.050781 L 127.144531 176.257812 C 124.164062 178.273438 122.941406 182.046875 124.164062 185.433594 L 139.570312 228.035156 C 140.683594 231.109375 143.625 233.191406 146.890625 233.21875 C 147.800781 233.230469 148.742188 233.070312 149.625 232.746094 C 153.699219 231.273438 155.8125 226.761719 154.339844 222.691406 L 141.699219 187.734375 C 141.085938 186.042969 141.550781 184.164062 142.886719 182.949219 L 159.964844 167.460938 C 160.785156 166.714844 161.835938 166.316406 162.921875 166.316406 C 163.175781 166.316406 163.429688 166.335938 163.683594 166.378906 C 165.035156 166.613281 166.179688 167.4375 166.828125 168.644531 L 181.039062 195.050781 L 181.382812 195.636719 C 181.417969 195.691406 181.457031 195.742188 181.492188 195.796875 L 181.898438 196.347656 C 181.949219 196.40625 181.996094 196.464844 182.050781 196.53125 L 182.222656 196.71875 C 182.285156 196.789062 182.351562 196.863281 182.421875 196.933594 L 182.597656 197.101562 C 182.671875 197.171875 182.746094 197.242188 182.820312 197.304688 L 182.996094 197.453125 C 183.074219 197.519531 183.15625 197.582031 183.242188 197.648438 L 183.414062 197.777344 C 183.503906 197.839844 183.59375 197.902344 183.679688 197.957031 L 183.859375 198.074219 C 183.953125 198.128906 184.050781 198.1875 184.140625 198.238281 L 184.332031 198.34375 C 184.425781 198.390625 184.519531 198.4375 184.632812 198.492188 L 184.8125 198.574219 C 184.90625 198.617188 185.003906 198.65625 185.164062 198.71875 L 185.320312 198.78125 C 185.414062 198.8125 185.507812 198.84375 185.605469 198.875 L 185.828125 198.945312 C 185.910156 198.96875 185.988281 198.988281 186.109375 199.015625 L 186.34375 199.074219 C 186.414062 199.089844 186.484375 199.101562 186.554688 199.113281 L 187.40625 199.230469 C 187.511719 199.238281 187.621094 199.242188 187.777344 199.246094 L 187.933594 199.253906 C 188.089844 199.257812 188.238281 199.25 188.394531 199.242188 L 188.519531 199.234375 C 188.625 199.226562 188.730469 199.21875 188.828125 199.207031 L 189.015625 199.183594 C 189.105469 199.171875 189.191406 199.160156 189.277344 199.144531 L 189.484375 199.105469 C 189.566406 199.089844 189.648438 199.074219 189.71875 199.058594 L 190.832031 198.71875 C 190.945312 198.675781 191.058594 198.625 191.152344 198.585938 L 221.902344 184.515625 C 223.8125 183.644531 225.265625 182.082031 225.996094 180.113281 C 226.726562 178.148438 226.652344 176.015625 225.777344 174.105469 C 224.90625 172.199219 223.34375 170.746094 221.375 170.015625 C 219.410156 169.28125 217.277344 169.359375 215.371094 170.234375 L 198.441406 177.980469 C 194.503906 179.78125 189.808594 178.207031 187.757812 174.390625 L 171.332031 143.871094 C 171.273438 143.761719 171.207031 143.652344 171.144531 143.542969 L 170.910156 143.085938 C 170.578125 142.308594 170.195312 141.566406 169.78125 140.878906 L 151.691406 111.035156 C 150.128906 108.457031 149.886719 105.382812 151.027344 102.59375 C 152.167969 99.804688 154.492188 97.777344 157.414062 97.03125 C 161.265625 96.046875 165.34375 97.605469 167.558594 100.910156 L 176.128906 113.6875 C 177.359375 115.523438 179.421875 116.632812 181.636719 116.652344 C 182.964844 116.695312 184.285156 116.269531 185.410156 115.515625 C 186.894531 114.519531 187.902344 113.007812 188.246094 111.253906 C 188.59375 109.5 188.234375 107.71875 187.238281 106.234375 L 172.351562 84.039062 C 172.097656 83.652344 171.804688 83.296875 171.464844 82.960938 L 171.441406 82.9375 C 171.300781 82.800781 171.152344 82.671875 170.988281 82.539062 L 170.929688 82.492188 C 170.785156 82.378906 170.636719 82.269531 170.457031 82.152344 L 170.386719 82.105469 C 170.230469 82.007812 170.074219 81.910156 169.953125 81.847656 L 169.832031 81.789062 C 169.660156 81.699219 169.488281 81.617188 169.355469 81.5625 L 169.277344 81.53125 C 168.296875 81.136719 167.226562 80.976562 166.117188 81.078125 L 166.101562 81.082031 C 165.929688 81.097656 165.761719 81.125 165.59375 81.15625 L 165.476562 81.175781 C 165.359375 81.199219 165.242188 81.222656 165.125 81.253906 L 126.269531 91.171875 C 125.582031 91.347656 124.929688 91.628906 124.328125 92.011719 L 123.996094 92.222656 L 123.621094 92.363281 C 122.574219 92.753906 121.566406 93.242188 120.632812 93.808594 C 117.023438 95.996094 114.320312 99.414062 113.015625 103.433594 L 112.859375 103.902344 L 112.59375 104.320312 C 112.371094 104.660156 112.183594 105.015625 112.03125 105.375 L 106.105469 119.519531 C 105.1875 121.707031 103.386719 123.433594 101.160156 124.253906 C 98.933594 125.070312 96.445312 124.929688 94.328125 123.855469 L 79.554688 116.375 C 76.261719 114.707031 72.230469 116.03125 70.566406 119.320312 C 69.757812 120.917969 69.621094 122.730469 70.175781 124.425781 Z M 70.175781 124.425781 " fill-opacity="1" fill-rule="nonzero"/></g><g fill="#0057ff" fill-opacity="0.302"><g transform="translate(37.200943, 329.056735)"><g><path d="M 3.484375 0 L 3.484375 -60.59375 L 22.234375 -60.59375 C 24.378906 -60.59375 26.222656 -59.789062 27.765625 -58.1875 C 29.304688 -56.59375 30.078125 -54.632812 30.078125 -52.3125 L 30.078125 -39.234375 C 30.078125 -37.316406 29.726562 -35.691406 29.03125 -34.359375 C 28.570312 -33.367188 27.847656 -32.523438 26.859375 -31.828125 L 30.078125 -31.828125 L 30.078125 -8.28125 C 30.078125 -5.957031 29.304688 -3.992188 27.765625 -2.390625 C 26.222656 -0.796875 24.378906 0 22.234375 0 Z M 20.484375 -39.234375 L 20.484375 -51.4375 L 13.078125 -51.4375 L 13.078125 -35.3125 Z M 20.484375 -28.421875 L 13.078125 -24.59375 L 13.078125 -9.15625 L 20.484375 -9.15625 Z M 20.484375 -28.421875 "/></g></g></g><g fill="#0057ff" fill-opacity="0.302"><g transform="translate(70.768144, 329.056735)"><g><path d="M 3.484375 0 L 3.484375 -52.3125 C 3.484375 -54.632812 4.253906 -56.59375 5.796875 -58.1875 C 7.335938 -59.789062 9.179688 -60.59375 11.328125 -60.59375 L 22.234375 -60.59375 C 24.378906 -60.59375 26.222656 -59.789062 27.765625 -58.1875 C 29.304688 -56.59375 30.078125 -54.632812 30.078125 -52.3125 L 30.078125 0 L 20.484375 0 L 20.484375 -25.71875 L 13.078125 -21.796875 L 13.078125 0 Z M 13.078125 -32.515625 L 20.484375 -36.4375 L 20.484375 -51.4375 L 13.078125 -51.4375 Z M 13.078125 -32.515625 "/></g></g></g><g fill="#0057ff" fill-opacity="0.302"><g transform="translate(104.335345, 329.056735)"><g><path d="M 20.484375 -16.5625 L 30.078125 -21.359375 L 30.078125 -8.28125 C 30.078125 -5.957031 29.304688 -3.992188 27.765625 -2.390625 C 26.222656 -0.796875 24.378906 0 22.234375 0 L 11.328125 0 C 9.179688 0 7.335938 -0.8125 5.796875 -2.4375 C 4.253906 -4.0625 3.484375 -6.007812 3.484375 -8.28125 L 3.484375 -52.3125 C 3.484375 -54.632812 4.253906 -56.59375 5.796875 -58.1875 C 7.335938 -59.789062 9.179688 -60.59375 11.328125 -60.59375 L 22.234375 -60.59375 C 24.378906 -60.59375 26.222656 -59.789062 27.765625 -58.1875 C 29.304688 -56.59375 30.078125 -54.632812 30.078125 -52.3125 L 30.078125 -47.078125 L 20.484375 -42.28125 L 20.484375 -51.4375 L 13.078125 -51.4375 L 13.078125 -9.15625 L 20.484375 -9.15625 Z M 20.484375 -16.5625 "/></g></g></g><g fill="#0057ff" fill-opacity="0.302"><g transform="translate(137.030667, 329.056735)"><g><path d="M 37.0625 0 L 26.859375 0 L 17.171875 -24.765625 L 13.078125 -16.296875 L 13.078125 0 L 3.484375 0 L 3.484375 -60.59375 L 13.078125 -60.59375 L 13.078125 -37.671875 L 23.359375 -60.59375 L 33.828125 -60.59375 L 22.40625 -36.015625 Z M 37.0625 0 "/></g></g></g><g fill="#0057ff" fill-opacity="0.302"><g transform="translate(172.341616, 329.056735)"><g><path d="M 25.28125 -4.453125 C 24.9375 -3.691406 24.441406 -3.019531 23.796875 -2.4375 C 22.285156 -0.8125 20.457031 0 18.3125 0 L 11.328125 0 C 9.179688 0 7.335938 -0.8125 5.796875 -2.4375 C 4.253906 -4.0625 3.484375 -6.007812 3.484375 -8.28125 L 3.484375 -60.59375 L 13.078125 -60.59375 L 13.078125 -9.15625 L 20.484375 -9.15625 L 20.484375 -60.59375 L 30.078125 -60.59375 L 30.078125 -9.15625 L 37.484375 -9.15625 L 37.484375 -60.59375 L 47.078125 -60.59375 L 47.078125 -8.28125 C 47.078125 -5.957031 46.304688 -3.992188 44.765625 -2.390625 C 43.222656 -0.796875 41.378906 0 39.234375 0 L 32.265625 0 C 30.109375 0 28.242188 -0.8125 26.671875 -2.4375 C 26.097656 -3.082031 25.632812 -3.753906 25.28125 -4.453125 Z M 25.28125 -4.453125 "/></g></g></g><g fill="#0057ff" fill-opacity="0.302"><g transform="translate(222.910376, 329.056735)"><g><path d="M 3.484375 0 L 3.484375 -52.3125 C 3.484375 -54.632812 4.253906 -56.59375 5.796875 -58.1875 C 7.335938 -59.789062 9.179688 -60.59375 11.328125 -60.59375 L 22.234375 -60.59375 C 24.378906 -60.59375 26.222656 -59.789062 27.765625 -58.1875 C 29.304688 -56.59375 30.078125 -54.632812 30.078125 -52.3125 L 30.078125 0 L 20.484375 0 L 20.484375 -25.71875 L 13.078125 -21.796875 L 13.078125 0 Z M 13.078125 -32.515625 L 20.484375 -36.4375 L 20.484375 -51.4375 L 13.078125 -51.4375 Z M 13.078125 -32.515625 "/></g></g></g><g fill="#0057ff" fill-opacity="0.302"><g transform="translate(256.477577, 329.056735)"><g><path d="M 25.28125 0 L 15.265625 -22.671875 L 13.078125 -21.53125 L 13.078125 0 L 3.484375 0 L 3.484375 -60.59375 L 22.234375 -60.59375 C 24.378906 -60.59375 26.222656 -59.789062 27.765625 -58.1875 C 29.304688 -56.59375 30.078125 -54.632812 30.078125 -52.3125 L 30.078125 -30.25 L 23.71875 -27.03125 L 35.75 0 Z M 20.484375 -36.1875 L 20.484375 -51.4375 L 13.078125 -51.4375 L 13.078125 -32.265625 Z M 20.484375 -36.1875 "/></g></g></g><g fill="#0057ff" fill-opacity="0.302"><g transform="translate(290.044767, 329.056735)"><g><path d="M 3.484375 0 L 3.484375 -60.59375 L 22.234375 -60.59375 C 24.378906 -60.59375 26.222656 -59.789062 27.765625 -58.1875 C 29.304688 -56.59375 30.078125 -54.632812 30.078125 -52.3125 L 30.078125 -8.28125 C 30.078125 -5.957031 29.304688 -3.992188 27.765625 -2.390625 C 26.222656 -0.796875 24.378906 0 22.234375 0 Z M 20.484375 -9.15625 L 20.484375 -51.4375 L 13.078125 -51.4375 L 13.078125 -9.15625 Z M 20.484375 -9.15625 "/></g></g></g><g fill="#0057ff" fill-opacity="0.302"><g transform="translate(323.61198, 329.056735)"><g><path d="M 3.484375 -52.3125 C 3.484375 -54.695312 4.253906 -56.671875 5.796875 -58.234375 C 7.335938 -59.804688 9.179688 -60.59375 11.328125 -60.59375 L 22.234375 -60.59375 C 24.378906 -60.59375 26.222656 -59.789062 27.765625 -58.1875 C 29.304688 -56.59375 30.078125 -54.632812 30.078125 -52.3125 L 30.078125 -49.703125 L 20.484375 -44.90625 L 20.484375 -51.4375 L 13.078125 -51.4375 L 13.078125 -35.3125 L 30.078125 -44.03125 L 30.078125 -8.28125 C 30.078125 -6.007812 29.304688 -4.0625 27.765625 -2.4375 C 26.222656 -0.8125 24.378906 0 22.234375 0 L 11.328125 0 C 9.179688 0 7.335938 -0.796875 5.796875 -2.390625 C 4.253906 -3.992188 3.484375 -5.957031 3.484375 -8.28125 L 3.484375 -13.953125 L 13.078125 -18.75 L 13.078125 -9.15625 L 20.484375 -9.15625 L 20.484375 -28.34375 L 3.484375 -19.625 Z M 3.484375 -52.3125 "/></g></g></g><g fill="#0057ff" fill-opacity="0.302"><g transform="translate(357.179193, 329.056735)"><g><path d="M 3.484375 -13.953125 L 3.484375 -60.59375 L 13.078125 -60.59375 L 13.078125 -13.953125 Z M 3.484375 0 L 3.484375 -9.59375 L 13.078125 -9.59375 L 13.078125 0 Z M 3.484375 0 "/></g></g></g><g fill="#0057ff" fill-opacity="0.502"><g transform="translate(34.328341, 326.892079)"><g><path d="M 3.484375 0 L 3.484375 -60.59375 L 22.234375 -60.59375 C 24.378906 -60.59375 26.222656 -59.789062 27.765625 -58.1875 C 29.304688 -56.59375 30.078125 -54.632812 30.078125 -52.3125 L 30.078125 -39.234375 C 30.078125 -37.316406 29.726562 -35.691406 29.03125 -34.359375 C 28.570312 -33.367188 27.847656 -32.523438 26.859375 -31.828125 L 30.078125 -31.828125 L 30.078125 -8.28125 C 30.078125 -5.957031 29.304688 -3.992188 27.765625 -2.390625 C 26.222656 -0.796875 24.378906 0 22.234375 0 Z M 20.484375 -39.234375 L 20.484375 -51.4375 L 13.078125 -51.4375 L 13.078125 -35.3125 Z M 20.484375 -28.421875 L 13.078125 -24.59375 L 13.078125 -9.15625 L 20.484375 -9.15625 Z M 20.484375 -28.421875 "/></g></g></g><g fill="#0057ff" fill-opacity="0.502"><g transform="translate(67.895542, 326.892079)"><g><path d="M 3.484375 0 L 3.484375 -52.3125 C 3.484375 -54.632812 4.253906 -56.59375 5.796875 -58.1875 C 7.335938 -59.789062 9.179688 -60.59375 11.328125 -60.59375 L 22.234375 -60.59375 C 24.378906 -60.59375 26.222656 -59.789062 27.765625 -58.1875 C 29.304688 -56.59375 30.078125 -54.632812 30.078125 -52.3125 L 30.078125 0 L 20.484375 0 L 20.484375 -25.71875 L 13.078125 -21.796875 L 13.078125 0 Z M 13.078125 -32.515625 L 20.484375 -36.4375 L 20.484375 -51.4375 L 13.078125 -51.4375 Z M 13.078125 -32.515625 "/></g></g></g><g fill="#0057ff" fill-opacity="0.502"><g transform="translate(101.462743, 326.892079)"><g><path d="M 20.484375 -16.5625 L 30.078125 -21.359375 L 30.078125 -8.28125 C 30.078125 -5.957031 29.304688 -3.992188 27.765625 -2.390625 C 26.222656 -0.796875 24.378906 0 22.234375 0 L 11.328125 0 C 9.179688 0 7.335938 -0.8125 5.796875 -2.4375 C 4.253906 -4.0625 3.484375 -6.007812 3.484375 -8.28125 L 3.484375 -52.3125 C 3.484375 -54.632812 4.253906 -56.59375 5.796875 -58.1875 C 7.335938 -59.789062 9.179688 -60.59375 11.328125 -60.59375 L 22.234375 -60.59375 C 24.378906 -60.59375 26.222656 -59.789062 27.765625 -58.1875 C 29.304688 -56.59375 30.078125 -54.632812 30.078125 -52.3125 L 30.078125 -47.078125 L 20.484375 -42.28125 L 20.484375 -51.4375 L 13.078125 -51.4375 L 13.078125 -9.15625 L 20.484375 -9.15625 Z M 20.484375 -16.5625 "/></g></g></g><g fill="#0057ff" fill-opacity="0.502"><g transform="translate(134.158065, 326.892079)"><g><path d="M 37.0625 0 L 26.859375 0 L 17.171875 -24.765625 L 13.078125 -16.296875 L 13.078125 0 L 3.484375 0 L 3.484375 -60.59375 L 13.078125 -60.59375 L 13.078125 -37.671875 L 23.359375 -60.59375 L 33.828125 -60.59375 L 22.40625 -36.015625 Z M 37.0625 0 "/></g></g></g><g fill="#0057ff" fill-opacity="0.502"><g transform="translate(169.469013, 326.892079)"><g><path d="M 25.28125 -4.453125 C 24.9375 -3.691406 24.441406 -3.019531 23.796875 -2.4375 C 22.285156 -0.8125 20.457031 0 18.3125 0 L 11.328125 0 C 9.179688 0 7.335938 -0.8125 5.796875 -2.4375 C 4.253906 -4.0625 3.484375 -6.007812 3.484375 -8.28125 L 3.484375 -60.59375 L 13.078125 -60.59375 L 13.078125 -9.15625 L 20.484375 -9.15625 L 20.484375 -60.59375 L 30.078125 -60.59375 L 30.078125 -9.15625 L 37.484375 -9.15625 L 37.484375 -60.59375 L 47.078125 -60.59375 L 47.078125 -8.28125 C 47.078125 -5.957031 46.304688 -3.992188 44.765625 -2.390625 C 43.222656 -0.796875 41.378906 0 39.234375 0 L 32.265625 0 C 30.109375 0 28.242188 -0.8125 26.671875 -2.4375 C 26.097656 -3.082031 25.632812 -3.753906 25.28125 -4.453125 Z M 25.28125 -4.453125 "/></g></g></g><g fill="#0057ff" fill-opacity="0.502"><g transform="translate(220.037773, 326.892079)"><g><path d="M 3.484375 0 L 3.484375 -52.3125 C 3.484375 -54.632812 4.253906 -56.59375 5.796875 -58.1875 C 7.335938 -59.789062 9.179688 -60.59375 11.328125 -60.59375 L 22.234375 -60.59375 C 24.378906 -60.59375 26.222656 -59.789062 27.765625 -58.1875 C 29.304688 -56.59375 30.078125 -54.632812 30.078125 -52.3125 L 30.078125 0 L 20.484375 0 L 20.484375 -25.71875 L 13.078125 -21.796875 L 13.078125 0 Z M 13.078125 -32.515625 L 20.484375 -36.4375 L 20.484375 -51.4375 L 13.078125 -51.4375 Z M 13.078125 -32.515625 "/></g></g></g><g fill="#0057ff" fill-opacity="0.502"><g transform="translate(253.604975, 326.892079)"><g><path d="M 25.28125 0 L 15.265625 -22.671875 L 13.078125 -21.53125 L 13.078125 0 L 3.484375 0 L 3.484375 -60.59375 L 22.234375 -60.59375 C 24.378906 -60.59375 26.222656 -59.789062 27.765625 -58.1875 C 29.304688 -56.59375 30.078125 -54.632812 30.078125 -52.3125 L 30.078125 -30.25 L 23.71875 -27.03125 L 35.75 0 Z M 20.484375 -36.1875 L 20.484375 -51.4375 L 13.078125 -51.4375 L 13.078125 -32.265625 Z M 20.484375 -36.1875 "/></g></g></g><g fill="#0057ff" fill-opacity="0.502"><g transform="translate(287.172164, 326.892079)"><g><path d="M 3.484375 0 L 3.484375 -60.59375 L 22.234375 -60.59375 C 24.378906 -60.59375 26.222656 -59.789062 27.765625 -58.1875 C 29.304688 -56.59375 30.078125 -54.632812 30.078125 -52.3125 L 30.078125 -8.28125 C 30.078125 -5.957031 29.304688 -3.992188 27.765625 -2.390625 C 26.222656 -0.796875 24.378906 0 22.234375 0 Z M 20.484375 -9.15625 L 20.484375 -51.4375 L 13.078125 -51.4375 L 13.078125 -9.15625 Z M 20.484375 -9.15625 "/></g></g></g><g fill="#0057ff" fill-opacity="0.502"><g transform="translate(320.739377, 326.892079)"><g><path d="M 3.484375 -52.3125 C 3.484375 -54.695312 4.253906 -56.671875 5.796875 -58.234375 C 7.335938 -59.804688 9.179688 -60.59375 11.328125 -60.59375 L 22.234375 -60.59375 C 24.378906 -60.59375 26.222656 -59.789062 27.765625 -58.1875 C 29.304688 -56.59375 30.078125 -54.632812 30.078125 -52.3125 L 30.078125 -49.703125 L 20.484375 -44.90625 L 20.484375 -51.4375 L 13.078125 -51.4375 L 13.078125 -35.3125 L 30.078125 -44.03125 L 30.078125 -8.28125 C 30.078125 -6.007812 29.304688 -4.0625 27.765625 -2.4375 C 26.222656 -0.8125 24.378906 0 22.234375 0 L 11.328125 0 C 9.179688 0 7.335938 -0.796875 5.796875 -2.390625 C 4.253906 -3.992188 3.484375 -5.957031 3.484375 -8.28125 L 3.484375 -13.953125 L 13.078125 -18.75 L 13.078125 -9.15625 L 20.484375 -9.15625 L 20.484375 -28.34375 L 3.484375 -19.625 Z M 3.484375 -52.3125 "/></g></g></g><g fill="#0057ff" fill-opacity="0.502"><g transform="translate(354.30659, 326.892079)"><g><path d="M 3.484375 -13.953125 L 3.484375 -60.59375 L 13.078125 -60.59375 L 13.078125 -13.953125 Z M 3.484375 0 L 3.484375 -9.59375 L 13.078125 -9.59375 L 13.078125 0 Z M 3.484375 0 "/></g></g></g><g fill="#000000" fill-opacity="1"><g transform="translate(31.45574, 324.727421)"><g><path d="M 3.484375 0 L 3.484375 -60.59375 L 22.234375 -60.59375 C 24.378906 -60.59375 26.222656 -59.789062 27.765625 -58.1875 C 29.304688 -56.59375 30.078125 -54.632812 30.078125 -52.3125 L 30.078125 -39.234375 C 30.078125 -37.316406 29.726562 -35.691406 29.03125 -34.359375 C 28.570312 -33.367188 27.847656 -32.523438 26.859375 -31.828125 L 30.078125 -31.828125 L 30.078125 -8.28125 C 30.078125 -5.957031 29.304688 -3.992188 27.765625 -2.390625 C 26.222656 -0.796875 24.378906 0 22.234375 0 Z M 20.484375 -39.234375 L 20.484375 -51.4375 L 13.078125 -51.4375 L 13.078125 -35.3125 Z M 20.484375 -28.421875 L 13.078125 -24.59375 L 13.078125 -9.15625 L 20.484375 -9.15625 Z M 20.484375 -28.421875 "/></g></g></g><g fill="#000000" fill-opacity="1"><g transform="translate(65.022941, 324.727421)"><g><path d="M 3.484375 0 L 3.484375 -52.3125 C 3.484375 -54.632812 4.253906 -56.59375 5.796875 -58.1875 C 7.335938 -59.789062 9.179688 -60.59375 11.328125 -60.59375 L 22.234375 -60.59375 C 24.378906 -60.59375 26.222656 -59.789062 27.765625 -58.1875 C 29.304688 -56.59375 30.078125 -54.632812 30.078125 -52.3125 L 30.078125 0 L 20.484375 0 L 20.484375 -25.71875 L 13.078125 -21.796875 L 13.078125 0 Z M 13.078125 -32.515625 L 20.484375 -36.4375 L 20.484375 -51.4375 L 13.078125 -51.4375 Z M 13.078125 -32.515625 "/></g></g></g><g fill="#000000" fill-opacity="1"><g transform="translate(98.590142, 324.727421)"><g><path d="M 20.484375 -16.5625 L 30.078125 -21.359375 L 30.078125 -8.28125 C 30.078125 -5.957031 29.304688 -3.992188 27.765625 -2.390625 C 26.222656 -0.796875 24.378906 0 22.234375 0 L 11.328125 0 C 9.179688 0 7.335938 -0.8125 5.796875 -2.4375 C 4.253906 -4.0625 3.484375 -6.007812 3.484375 -8.28125 L 3.484375 -52.3125 C 3.484375 -54.632812 4.253906 -56.59375 5.796875 -58.1875 C 7.335938 -59.789062 9.179688 -60.59375 11.328125 -60.59375 L 22.234375 -60.59375 C 24.378906 -60.59375 26.222656 -59.789062 27.765625 -58.1875 C 29.304688 -56.59375 30.078125 -54.632812 30.078125 -52.3125 L 30.078125 -47.078125 L 20.484375 -42.28125 L 20.484375 -51.4375 L 13.078125 -51.4375 L 13.078125 -9.15625 L 20.484375 -9.15625 Z M 20.484375 -16.5625 "/></g></g></g><g fill="#000000" fill-opacity="1"><g transform="translate(131.285464, 324.727421)"><g><path d="M 37.0625 0 L 26.859375 0 L 17.171875 -24.765625 L 13.078125 -16.296875 L 13.078125 0 L 3.484375 0 L 3.484375 -60.59375 L 13.078125 -60.59375 L 13.078125 -37.671875 L 23.359375 -60.59375 L 33.828125 -60.59375 L 22.40625 -36.015625 Z M 37.0625 0 "/></g></g></g><g fill="#000000" fill-opacity="1"><g transform="translate(166.596413, 324.727421)"><g><path d="M 25.28125 -4.453125 C 24.9375 -3.691406 24.441406 -3.019531 23.796875 -2.4375 C 22.285156 -0.8125 20.457031 0 18.3125 0 L 11.328125 0 C 9.179688 0 7.335938 -0.8125 5.796875 -2.4375 C 4.253906 -4.0625 3.484375 -6.007812 3.484375 -8.28125 L 3.484375 -60.59375 L 13.078125 -60.59375 L 13.078125 -9.15625 L 20.484375 -9.15625 L 20.484375 -60.59375 L 30.078125 -60.59375 L 30.078125 -9.15625 L 37.484375 -9.15625 L 37.484375 -60.59375 L 47.078125 -60.59375 L 47.078125 -8.28125 C 47.078125 -5.957031 46.304688 -3.992188 44.765625 -2.390625 C 43.222656 -0.796875 41.378906 0 39.234375 0 L 32.265625 0 C 30.109375 0 28.242188 -0.8125 26.671875 -2.4375 C 26.097656 -3.082031 25.632812 -3.753906 25.28125 -4.453125 Z M 25.28125 -4.453125 "/></g></g></g><g fill="#000000" fill-opacity="1"><g transform="translate(217.165173, 324.727421)"><g><path d="M 3.484375 0 L 3.484375 -52.3125 C 3.484375 -54.632812 4.253906 -56.59375 5.796875 -58.1875 C 7.335938 -59.789062 9.179688 -60.59375 11.328125 -60.59375 L 22.234375 -60.59375 C 24.378906 -60.59375 26.222656 -59.789062 27.765625 -58.1875 C 29.304688 -56.59375 30.078125 -54.632812 30.078125 -52.3125 L 30.078125 0 L 20.484375 0 L 20.484375 -25.71875 L 13.078125 -21.796875 L 13.078125 0 Z M 13.078125 -32.515625 L 20.484375 -36.4375 L 20.484375 -51.4375 L 13.078125 -51.4375 Z M 13.078125 -32.515625 "/></g></g></g><g fill="#000000" fill-opacity="1"><g transform="translate(250.732374, 324.727421)"><g><path d="M 25.28125 0 L 15.265625 -22.671875 L 13.078125 -21.53125 L 13.078125 0 L 3.484375 0 L 3.484375 -60.59375 L 22.234375 -60.59375 C 24.378906 -60.59375 26.222656 -59.789062 27.765625 -58.1875 C 29.304688 -56.59375 30.078125 -54.632812 30.078125 -52.3125 L 30.078125 -30.25 L 23.71875 -27.03125 L 35.75 0 Z M 20.484375 -36.1875 L 20.484375 -51.4375 L 13.078125 -51.4375 L 13.078125 -32.265625 Z M 20.484375 -36.1875 "/></g></g></g><g fill="#000000" fill-opacity="1"><g transform="translate(284.299564, 324.727421)"><g><path d="M 3.484375 0 L 3.484375 -60.59375 L 22.234375 -60.59375 C 24.378906 -60.59375 26.222656 -59.789062 27.765625 -58.1875 C 29.304688 -56.59375 30.078125 -54.632812 30.078125 -52.3125 L 30.078125 -8.28125 C 30.078125 -5.957031 29.304688 -3.992188 27.765625 -2.390625 C 26.222656 -0.796875 24.378906 0 22.234375 0 Z M 20.484375 -9.15625 L 20.484375 -51.4375 L 13.078125 -51.4375 L 13.078125 -9.15625 Z M 20.484375 -9.15625 "/></g></g></g><g fill="#000000" fill-opacity="1"><g transform="translate(317.866777, 324.727421)"><g><path d="M 3.484375 -52.3125 C 3.484375 -54.695312 4.253906 -56.671875 5.796875 -58.234375 C 7.335938 -59.804688 9.179688 -60.59375 11.328125 -60.59375 L 22.234375 -60.59375 C 24.378906 -60.59375 26.222656 -59.789062 27.765625 -58.1875 C 29.304688 -56.59375 30.078125 -54.632812 30.078125 -52.3125 L 30.078125 -49.703125 L 20.484375 -44.90625 L 20.484375 -51.4375 L 13.078125 -51.4375 L 13.078125 -35.3125 L 30.078125 -44.03125 L 30.078125 -8.28125 C 30.078125 -6.007812 29.304688 -4.0625 27.765625 -2.4375 C 26.222656 -0.8125 24.378906 0 22.234375 0 L 11.328125 0 C 9.179688 0 7.335938 -0.796875 5.796875 -2.390625 C 4.253906 -3.992188 3.484375 -5.957031 3.484375 -8.28125 L 3.484375 -13.953125 L 13.078125 -18.75 L 13.078125 -9.15625 L 20.484375 -9.15625 L 20.484375 -28.34375 L 3.484375 -19.625 Z M 3.484375 -52.3125 "/></g></g></g><g fill="#000000" fill-opacity="1"><g transform="translate(351.43399, 324.727421)"><g><path d="M 3.484375 -13.953125 L 3.484375 -60.59375 L 13.078125 -60.59375 L 13.078125 -13.953125 Z M 3.484375 0 L 3.484375 -9.59375 L 13.078125 -9.59375 L 13.078125 0 Z M 3.484375 0 "/></g></g></g></svg>